<svg xmlns="http://www.w3.org/2000/svg" width="400" height="123" viewBox="0 0 400 123">
  <defs>
    <style>
      .cls-1 {
        fill: #1c2541;
        fill-rule: evenodd;
      }
    </style>
  </defs>
  <path id="Fond_1" data-name="Fond 1" class="cls-1" d="M265.046,71.588h0.972v0.194h7.39c1.054-.047,3.39-0.557,4.667-0.194v0.194h1.944L284.1,72.17l4.862,1.358v0.194l0.972,0.194V74.11h0.389V74.3L291.1,74.5v0.194h0.583v0.194h0.389V75.08l4.861,0.97a24.618,24.618,0,0,0-2.139-5.626V69.842H294.6V69.26h-0.195V68.484h-0.194V67.708H294.02V66.932h-0.194v-0.97h-0.194V64.41h-0.195v-3.3a29.152,29.152,0,0,1,.972-8.148,7.912,7.912,0,0,0-.389-3.686,2.112,2.112,0,0,1-.388-1.552h0.194V47.144h0.194V46.368h0.195q0.1-.679.194-1.358H294.6V44.427H294.8V43.845h0.195V43.263h0.194l0.195-1.164h0.194V41.711h0.195q0.1-.291.194-0.582h0.389l0.583-.776h0.389l0.584-.776H298.3L298.687,39h0.389l0.584-.776h0.389l0.389-.582h0.388l0.389-.582H301.6l0.389-.582h0.389l0.389-.582h0.389c0.065-.129.13-0.259,0.194-0.388l0.584-.194V35.115l0.778-.194c0.064-.129.129-0.259,0.194-0.388l0.778-.194c0.065-.129.13-0.259,0.194-0.388h0.389l0.389-.388h0.389V33.369h0.389V33.175h0.389V32.981h0.389V32.787l1.167-.388V32.205l0.972-.194V31.817h0.389V31.623h0.583V31.429h0.389V31.235l7.778-2.328h0.973V28.713h0.778V28.519h0.972V28.325h0.972V28.131h1.167V27.937h1.361V27.743h1.75V27.549H330a31.239,31.239,0,0,1,8.751,0h3.5v0.194h2.722v0.194h1.945v0.194h1.361v0.194h1.167v0.194l1.75,0.194v0.194h0.778V29.1h0.778V29.3h0.778v0.194H354.3v0.194h0.584v0.194h0.583v0.194h0.584v0.194h0.583v0.194h0.583v0.194l1.75,0.388v0.194h0.389v0.194h0.584v0.194h0.389v0.194h0.583v0.194l0.778,0.194V32.4h0.583v0.194l0.778,0.194v0.194l0.972,0.194v0.194l1.167,0.388v0.194h0.389v0.194h0.389v0.194h0.389v0.194h0.389v0.194h0.389v0.194h0.389v0.194h0.388v0.194H368.3l0.389,0.388h0.389l0.195,0.388h0.389v0.194h0.388l0.389,0.388h0.389l0.195,0.388,1.167,0.388c0.064,0.129.129,0.259,0.194,0.388l0.778,0.194,0.194,0.388,0.778,0.194L374.332,39l0.777,0.194,0.195,0.388h0.389v0.194h0.389v0.194l0.583,0.194,0.195,0.388,0.777,0.194,0.195,0.388h0.389l0.194,0.388H378.8l0.2,0.388h0.388V42.1l0.584,0.194,0.194,0.388h0.389l0.389,0.582h0.389c0.065,0.129.13,0.259,0.194,0.388h0.389l0.584,0.776h0.389l0.778,0.97h0.388l1.362,1.552,0.777,0.582V47.92l1.751,1.552V49.86l1.166,0.97v0.388l0.973,0.776v0.388l0.583,0.388v0.388l0.778,0.582v0.388l0.389,0.194V54.71l0.583,0.388v0.388l0.389,0.194v0.388l0.389,0.194V56.65l0.389,0.194v0.388l0.389,0.194c0.065,0.259.129,0.517,0.194,0.776l0.389,0.194v0.388h0.195v0.388l0.389,0.388v0.388l0.388,0.194,0.195,0.776h0.194q0.195,0.582.389,1.164H396.5v0.582h0.194l0.195,0.776h0.194v0.582h0.195V64.41h0.194l0.195,1.164h0.194v0.388h0.194v0.776h0.195V67.32h0.194V67.9h0.195v0.776h0.194v0.776h0.195V70.23h0.194v1.164h0.195v1.164h0.194l0.195,3.492a22.583,22.583,0,0,1,0,7.566v2.134l-0.195,2.91h-0.194V90.6h-0.195v1.358h-0.194v0.97h-0.195V93.9h-0.194l-0.195,1.358H398.25v0.582h-0.195v0.582h-0.194V97h-0.194l-0.195.776h-0.194q-0.293.873-.584,1.746l-0.389.194c-0.065.259-.129,0.518-0.194,0.776h-0.195q-0.1.291-.194,0.582l-0.389.194v0.388l-0.583.388v0.388l-1.362,1.164v0.388q-1.263,1.164-2.528,2.328l-2.139,2.329h-0.388q-0.293.387-.584,0.776H387.36l-0.389.582h-0.389l-0.194.388-0.583.194v0.194h-0.389l-0.389.388h-0.389v0.194h-0.389v0.194H383.86c-0.065.129-.13,0.258-0.194,0.388l-0.778.194-0.195.388-0.778.194-0.194.388h-0.389c-0.065.129-.13,0.258-0.194,0.388h-0.389l-0.389.582h-0.389l-0.195.388h-0.389l-0.194.388-0.583.194-0.389.582h-0.389l-0.389.582h-0.389c-0.065.129-.13,0.258-0.194,0.388h-0.389l-0.389.582h-0.389l-0.195.388h-0.389c-0.064.129-.129,0.259-0.194,0.388h-0.389l-0.194.388h-0.389l-0.195.388h-0.389c-0.065.129-.129,0.259-0.194,0.388l-0.778.194-0.194.388H371.8l-0.389.388h-0.389v0.194h-0.389v0.194h-0.389v0.194h-0.389v0.194H369.47v0.194l-1.167.388v0.194H367.72v0.194h-0.389v0.194l-1.75.388v0.194c-1.747.583-6.122,0.194-8.362,0.194a32.308,32.308,0,0,1-12.64-2.522l-1.75-.388-4.667-2.134c-0.064-.129-0.129-0.259-0.194-0.388l-0.778-.194L337,116.792h-0.389l-0.2-.388h-0.389c-0.064-.13-0.129-0.259-0.194-0.388H335.44v-0.194l-0.583-.194-0.2-.388h-0.389l-0.389-.582H333.5l-0.389-.582h-0.388l-0.389-.582H331.94q-0.292-.388-0.584-0.776h-0.389l-0.583-.776H330l-0.583-.776h-0.389q-0.389-.486-0.778-0.97h-0.389l-0.583-.776h-0.389q-0.293-.389-0.584-0.776h-0.388l-0.195-.388h-0.194l-0.2-.388h-0.389l-0.583-.777h-0.389q-0.388-.484-0.778-0.97H322.8l-0.778-.97h-0.389l-0.583-.776h-0.389l-0.778-.97h-0.389l-0.777-.97h-0.389q-0.39-.485-0.778-0.97h-0.389q-0.292-.387-0.583-0.776h-0.389q-0.292-.387-0.584-0.776h-0.389l-0.389-.582h-0.388l-0.389-.582h-0.389l-0.389-.582h-0.389l-0.195-.388H312.3l-0.388-.582h-0.389l-0.195-.388h-0.389V96.615l-0.583-.194-0.195-.388h-0.388l-0.389-.582h-0.389l-0.2-.388-0.583-.194V94.675h-0.389l-0.195-.388h-0.388l-0.2-.388H306.66l-0.194-.388h-0.389l-0.195-.388h-0.389c-0.064-.129-0.129-0.259-0.194-0.388l-0.778-.194-0.194-.388h-0.389l-0.195-.388h-0.389c-0.064-.129-0.129-0.259-0.194-0.388h-0.389c-0.065-.129-0.13-0.259-0.194-0.388l-0.584-.194V90.6l-0.778-.194c-0.064-.129-0.129-0.259-0.194-0.388h-0.389c-0.065-.129-0.13-0.259-0.194-0.388l-0.778-.194V89.243l-0.584-.194c-0.064-.129-0.129-0.259-0.194-0.388h-0.389V88.467H298.1c-0.065-.129-0.13-0.259-0.194-0.388l-0.778-.194-0.195-.388-0.778-.194c-0.064-.129-0.129-0.259-0.194-0.388l-0.778-.194-0.194-.388-0.778-.194-0.195-.388-1.166-.388-0.195-.388-1.167-.388c-0.064-.129-0.129-0.259-0.194-0.388h-0.389l-0.389-.388h-0.389V83.617h-0.389V83.423h-0.389V83.229h-0.388V83.035h-0.389V82.841h-0.389V82.647l-1.167-.388V82.065h-0.583V81.871h-0.389V81.677h-0.584V81.483h-0.389V81.289l-1.166-.194V80.9h-0.584V80.707h-0.583V80.513h-0.584V80.319h-0.777V80.125h-0.973V79.931h-0.972V79.737l-4.861-.388v0.194h-2.917v0.194h-1.167v0.194h-0.972v0.194h-0.778c-3.382,1.187-6.247,2.777-8.167,5.432l-0.973.776v0.388l-0.583.388V87.5l-0.389.194q-0.1.291-.194,0.582H258.24v0.388l-0.389.194c-0.065.259-.129,0.517-0.194,0.776l-0.389.194q-0.195.582-.389,1.164h-0.195v0.388H256.49q-0.195.582-.389,1.164h-0.194v0.582h-0.2v0.582h-0.194v0.582h-0.195v0.97h-0.194v0.97h-0.195v1.358H254.74l-0.2,1.746h-0.194q-0.1.388-.194,0.776l-0.584.388v0.388l-0.389.388H252.8l-0.389.582-1.75.582-2.528.194v0.194l-2.722.388a13.432,13.432,0,0,0-1.361-.582,2.473,2.473,0,0,0-.389-0.388v-0.388l-0.389-.194v-0.582h-0.195q-0.1-.484-0.194-0.97l-0.389-.194V99.525H242.3l-0.584-.776-0.778-.194-0.389-.388h-0.388V97.973h-0.389V97.779h-0.389V97.585h-0.389V97.391H238.6V97.2L237.822,97V96.809l-0.778-.194V96.421h-0.389V96.227h-0.389V96.033h-0.389V95.839h-0.388V95.645H235.1V95.451l-0.778-.194V95.063h-0.389V94.869H233.35V94.675l-1.167-.388V94.093h-0.389V93.9h-0.389V93.705h-0.389V93.511h-0.389V93.317l-0.778-.194V92.929H229.46V92.735h-0.389V92.541h-0.388V92.347h-0.389V92.153l-0.778-.194V91.765h-0.389V91.571l-1.75-.582V90.8L224.6,90.6V90.407l-0.778-.194V90.019h-0.389V89.825h-0.389V89.631h-0.389V89.437h-0.389V89.243h-0.388V89.049h-0.389l-0.389-.388H220.71l-0.2-.388h-0.389V88.079h-0.389V87.885h-0.388L218.96,87.5h-0.389l-0.195-.388-1.166-.388-0.2-.388h-0.389V86.139h-0.389l-0.194-.388-1.167-.388c-0.065-.129-0.13-0.259-0.194-0.388h-0.389V84.781H213.9l-0.195-.388H213.32L212.931,84h-0.388l-0.195-.388-1.167-.388c-0.064-.129-0.129-0.259-0.194-0.388l-0.778-.194-0.389-.388h-0.389V82.065h-0.389V81.871h-0.389V81.677l-0.777-.194V81.289l-0.778-.194V80.9l-0.778-.194V80.513h-0.389V80.319h-0.389V80.125h-0.389V79.931h-0.389V79.737l-1.167-.388V79.155h-0.583V78.961l-0.778-.194V78.573l-1.166-.388V77.991h-0.389V77.8l-1.167-.388V77.215H198.93V77.021h-0.388V76.827h-0.389V76.633l-1.167-.388V76.051H196.4V75.857h-0.389V75.663l-1.167-.388V75.08h-0.584V74.886h-0.388V74.692l-1.167-.388V74.11h-0.584V73.916h-0.388V73.722l-1.167-.388V73.14h-0.584V72.946l-0.777-.194V72.558h-0.584V72.364h-0.389V72.17h-0.583V71.976l-0.778-.194V71.588h-0.583V71.394H185.9V71.2h-0.584V71.006H184.93V70.812h-0.584V70.618h-0.389V70.424l-0.972-.194V70.036H182.4V69.842h-0.389V69.648l-1.167-.194V69.26h-0.389V69.066h-0.583V68.872h-0.389V68.678H178.9a15.648,15.648,0,0,0-4.472-1.358,2.069,2.069,0,0,0-.195.776,7.529,7.529,0,0,1,2.139,2.328l0.778,0.582v0.388l0.584,0.388V72.17l0.972,0.776v0.388l0.972,0.776V74.5l1.556,1.358v0.388l0.389,0.194L182.6,77.6l6.612,6.208H189.6l0.973,1.164h0.389l0.778,0.97h0.388l0.584,0.776H193.1l0.194,0.388,0.584,0.388v0.194h0.388l0.778,0.97h0.389l1.361,1.552h0.389l1.167,1.358,1.167,0.97,0.389,0.582h0.389l1.166,1.358,0.778,0.582,0.2,0.388h0.389l0.777,0.97h0.389L204.375,97h0.389l0.389,0.582h0.389l0.389,0.582,0.583,0.194,0.778,0.97,1.167,0.97v0.388h0.194v0.388h0.2a2.628,2.628,0,0,1,.194,1.94l-0.583.388V103.6l-3.306,1.164h-1.361v0.194h-1.556v-0.194h-1.75v-0.194h-0.972v-0.194h-0.778v-0.194h-0.972v-0.194h-0.778v-0.194h-0.778V103.6h-0.972c-1.436-.458-3.405-0.727-4.862-1.164h-1.166c-1.522-.458-3.662-0.52-5.251-0.97h-1.944v-0.194h-2.334v-0.194h-2.333v-0.194h-2.334v-0.194H172.29V100.5l-4.667-.194h-2.139v-0.194h-3.112c-2.66,0-5.61.1-7.972,0.194-0.4.662-.752,0.6-0.778,1.746a18.363,18.363,0,0,0,0,4.268q0.388,1.746.778,3.493h0.194V110.2h0.195v0.582h0.194v0.388h0.194v0.582h0.2q0.1,0.387.194,0.776h0.195a8.315,8.315,0,0,1,.389,3.1l-0.778.582V116.4h-0.389V116.6H154.4v0.194h-0.778v0.194h-0.584c-0.731.312-3.294,1.714-4.472,1.358V118.15l-0.972-.194q-0.39-.485-0.778-0.97h-0.195c-0.065-.324-0.129-0.647-0.194-0.97h-0.195v-0.388h-0.194l-0.2-.776h-0.194V114.27h-0.194l-0.2-.776h-0.194l-0.195-1.164h-0.194v-0.388h-0.195V111.36h-0.194v-0.582h-0.2V110.2H143.9v-0.582H143.7q-0.291-1.746-.583-3.493h-0.194l-0.195-1.746h-0.194a6.956,6.956,0,0,1-.389-3.88l0.778-.582V99.719h0.389c0.064-.129.129-0.259,0.194-0.388l1.167-.388V98.749h0.389V98.555l1.166-.388V97.973h0.584V97.779h0.389V97.585h0.583V97.391h0.389V97.2l1.945-.388V96.615h0.583V96.421l5.25-.97h2.334a23.687,23.687,0,0,1,5.834-.194v0.194h3.305v0.194L179.1,96.227v0.194h2.722v0.194h2.334v0.194h1.75a25.651,25.651,0,0,0,7.778,1.164l0.195-.388-2.334-1.94-0.389-.582h-0.389L189.6,93.705h-0.388l-1.167-1.358h-0.389L186.291,90.8H185.9l-1.167-1.358h-0.389L182.6,87.5a59.855,59.855,0,0,1-7-6.6,61.693,61.693,0,0,1-6.807-7.372l-0.972-.776V72.364l-0.778-.582V71.394L166.65,71.2V71.006l-0.388-.194V70.424l-0.584-.388V69.648L165.1,69.26V68.872l-0.584-.388V68.1l-0.388-.194-0.195-.582h-0.194V66.932h-0.2q-0.1-.291-0.194-0.582l-0.584-.388c-0.065-.259-0.129-0.517-0.194-0.776l-0.389-.194V64.6l-0.389-.194V64.022l-0.389-.194q-0.1-.388-0.194-0.776l-0.389-.194-0.195-.776h-0.194V61.694l-0.389-.194c-0.543-.863-0.6-1.9-1.361-2.522V58.784h0.194c0.813-1.423,4.9-3.088,7.39-2.328h0.972V56.65h0.583v0.194h0.389v0.194h0.583l0.2,0.388h0.389V57.62l0.778,0.194,0.194,0.388,1.167,0.388c0.065,0.129.13,0.259,0.194,0.388l0.778,0.194v0.194l0.778,0.194v0.194h0.583v0.194h0.389v0.194h0.389v0.194h0.389V60.53l1.167,0.388v0.194h0.583v0.194l1.167,0.388v0.194h0.389v0.194h0.389v0.194H179.1V62.47h0.389l0.389,0.388h0.389c0.064,0.129.129,0.259,0.194,0.388h0.389V63.44l0.778,0.194v0.194h0.583v0.194H182.6v0.194l1.167,0.194V64.6h0.389V64.8l1.166,0.194v0.194h0.389V65.38l1.167,0.194v0.194h0.389v0.194h0.583v0.194l0.973,0.194v0.194h0.389v0.194h0.583v0.194l0.778,0.194V67.32h0.583v0.194h0.389v0.194l1.167,0.388V68.29h0.583v0.194l1.167,0.388v0.194l0.778,0.194,0.194,0.388h0.389v0.194h0.389L196.6,70.23h0.389c0.065,0.129.13,0.259,0.194,0.388h0.389v0.194l0.778,0.194V71.2l1.167,0.194v0.194H200.1v0.194h0.584v0.194h0.583V72.17l1.361,0.194v0.194H203.4v0.194h0.389v0.194h0.583V73.14h0.389v0.194h0.584v0.194h0.389c0.064,0.129.129,0.259,0.194,0.388h0.389l0.389,0.388H207.1V74.5h0.389v0.194h0.389v0.194h0.388V75.08h0.389l0.389,0.388h0.389l0.195,0.388h0.389l0.389,0.388h0.388v0.194h0.389v0.194l0.778,0.194,0.195,0.388h0.389v0.194h0.388L213.32,77.8h0.389l0.195,0.388h0.389v0.194h0.389v0.194h0.388l0.389,0.388h0.389l0.195,0.388h0.389v0.194h0.389l0.389,0.388H217.6l0.195,0.388h0.389v0.194h0.389v0.194h0.389l0.389,0.388h0.388c1.743,1.092,3.264,2.223,6.029,2.328a2.052,2.052,0,0,0,.194-0.776l-1.167-.97V81.289l-0.972-.776-1.75-1.94-2.917-2.716-0.972-1.164h-0.389l-5.056-5.238h-0.194l-0.195-.388h-0.389l-6.611-6.79h-0.389l-3.5-3.686a34.234,34.234,0,0,1-3.889-4.074l-1.361-1.164V52.964h-0.194l-0.389-.582-0.584-.388V51.606l-0.778-.582V50.636l-0.777-.582V49.666l-0.778-.582V48.7l-0.778-.582V47.726l-0.583-.388-0.2-.582-0.389-.194V46.174l-0.389-.194V45.592l-0.583-.388V44.816l-0.389-.194q-0.1-.291-0.194-0.582h-0.195V43.651l-0.389-.194c-0.065-.259-0.129-0.517-0.194-0.776l-0.389-.194-0.195-.776-0.389-.194-0.388-1.164-0.389-.194V39.771l-0.389-.388V39H186.1q-0.389-1.164-.778-2.328a21.941,21.941,0,0,1-2.139-9.312l0.195-3.686c0.991-3.215,2.415-6.185,4.861-7.954l0.973-1.164H189.6l0.195-.388,0.583-.194V13.774h0.389l0.195-.388L192.124,13V12.8h0.389V12.61l1.167-.388V12.028l1.167-.194V11.64h0.389V11.446l1.944-.388V10.864h0.584V10.67h0.778V10.476h0.777V10.282h0.973V10.088h0.972V9.894h1.361V9.7l6.223-.194V9.7h1.361a33.155,33.155,0,0,1,9.334,5.238l0.972,1.164,1.75,1.552v0.388l0.973,0.776v0.388l0.389,0.194v0.388l0.583,0.388q0.1,0.388.194,0.776l0.389,0.194v0.388l0.389,0.194v0.388l0.389,0.194V22.7l0.389,0.194v0.388l0.389,0.194v0.388c0.3,0.446,1.589,2.062,2.528,1.746,1.1-.37,1.709-2.7,2.334-3.686l0.388-.194,0.2-.776,0.389-.194c0.065-.259.129-0.517,0.194-0.776l0.389-.194V19.4h0.2q0.1-.291.194-0.582l0.389-.194V18.237l0.583-.388V17.461l0.389-.194V16.879l0.778-.582V15.909l0.583-.388V15.133l0.973-.776V13.969l1.555-1.358V12.222l1.751-1.552,1.75-1.94H242.3l1.166-1.358h0.389l0.584-.776h0.389l0.388-.582H245.6l0.389-.582h0.389l0.2-.388h0.389c0.064-.129.129-0.259,0.194-0.388h0.389V4.462h0.389c0.065-.129.13-0.259,0.194-0.388l1.167-.388,0.2-.388h0.388V3.1l0.778-.194V2.716h0.584V2.522l0.778-.194V2.134l4.861-1.552,2.139-.194V0.194l7-.194V0.194h1.751V0.388h1.361V0.582h1.944V0.776L276.13,0.97V1.164l1.75,0.388V1.746l1.167,0.388V2.328h0.389V2.522l0.778,0.194c0.065,0.129.13,0.259,0.194,0.388H280.8l0.389,0.582h0.389l1.361,1.552,1.167,0.97V6.6l0.583,0.388V7.372l0.389,0.194q0.195,0.582.389,1.164l0.389,0.194,0.195,0.97h0.194l0.195,0.776h0.194q0.1,0.582.194,1.164h0.195v0.582h0.194V13h0.195q0.1,0.679.194,1.358H287.8v0.97h0.194V16.3h0.195v1.164h0.194v1.552h0.2v2.328a19.645,19.645,0,0,1-.584,5.626q-0.291,1.649-.583,3.3h-0.195q-0.194.873-.389,1.746h-0.194q-0.1.485-.194,0.97h-0.195v0.388h-0.194v0.582h-0.195c-0.065.259-.129,0.517-0.194,0.776h-0.195q-0.194.582-.389,1.164h-0.194l-0.195.776h-0.194q-0.1.388-.194,0.776H284.1v0.388h-0.194v0.388h-0.195v0.388H283.52V39h-0.195c-0.065.259-.129,0.517-0.194,0.776h-0.195q-0.1.388-.194,0.776h-0.195v0.388h-0.194v0.388h-0.195v0.388h-0.194V42.1H281.77l-0.195.776-0.389.194c-0.065.259-.129,0.517-0.194,0.776l-0.389.388v0.388h-0.195V45.01h-0.194V45.4h-0.195v0.388h-0.194v0.388l-0.389.388V46.95l-0.389.194v0.388l-0.389.388v0.388h-0.194V48.7h-0.195v0.388h-0.194l-0.195.776-0.389.194v0.388l-0.388.388v0.388h-0.195v0.388h-0.194l-0.195.776-0.389.194v0.388l-0.389.388V53.74h-0.194v0.388h-0.2v0.388h-0.194q-0.1.388-.194,0.776l-0.389.194v0.388H274.38v0.388h-0.194V56.65l-0.389.388v0.388l-0.389.194v0.388h-0.195V58.4h-0.194v0.388l-0.389.388V59.56l-0.389.194v0.388h-0.194V60.53h-0.2v0.388l-0.389.388v0.388l-0.389.194q-0.194.582-.389,1.164l-0.388.194v0.388h-0.2q-0.1.291-.194,0.582l-0.389.194V64.8l-0.584.388v0.388l-0.389.194v0.388l-0.388.194-0.195.582-0.583.388v0.388l-0.389.194V68.29l-0.584.388v0.388l-0.389.194A6.3,6.3,0,0,0,265.046,71.588ZM242.684,85.169a1.477,1.477,0,0,1,.388-0.776h0.195V84l0.389-.194V83.423l0.389-.194V82.841l0.389-.194V82.259h0.194l0.2-.582,0.388-.194V81.095l0.584-.388V80.319l0.389-.194V79.737l0.583-.388V78.961l0.389-.194V78.379l0.583-.388V77.6l0.389-.194V77.021l0.389-.194,0.195-.582,0.583-.388V75.469l0.389-.194V74.886l0.583-.388V74.11l0.389-.194V73.528l0.584-.388V72.752h0.194l0.195-.582,0.389-.194V71.588L252.6,71.2V70.812l0.389-.194V70.23h0.194l0.195-.582,0.389-.194V69.066l0.389-.194q0.1-.291.194-0.582h0.194l0.2-.776,0.389-.194c0.065-.259.129-0.517,0.194-0.776l0.389-.194,0.2-.776H256.1l0.195-.582,0.388-.194,0.195-.776,0.389-.194V63.44l0.389-.194V62.858l0.389-.194V62.276l0.389-.194V61.694h0.194l0.195-.582,0.388-.194V60.53l0.389-.194V59.948l0.389-.194V59.366l0.389-.194,0.195-.776,0.389-.194V57.814l0.388-.194V57.232l0.389-.194V56.65h0.195q0.1-.291.194-0.582l0.389-.194V55.486h0.2c0.065-.194.129-0.388,0.194-0.582l0.389-.194V54.322l0.389-.194q0.1-.291.194-0.582h0.195q0.1-.388.194-0.776l0.389-.194V52.188l0.389-.194V51.606l0.389-.194,0.195-.776h0.194q0.1-.291.194-0.582l0.389-.194,0.195-.776,0.389-.194V48.5h0.194V48.114l0.389-.194,0.195-.776,0.389-.194q0.291-.873.583-1.746h0.194V44.816h0.195q0.1-.582.194-1.164h0.195V43.263h0.194q0.195-.873.389-1.746h0.2V41.129h0.194V40.547h0.194V40.159h0.195V39.577h0.194l0.195-.776h0.194l0.195-.776,0.389-.194q0.193-.582.389-1.164h0.194q0.195-.582.389-1.164h0.194l0.195-.97H273.6V34.145h0.2q0.193-.873.389-1.746h0.194c0.772-1.946.953-4.325,1.556-6.4V24.445h0.194l0.195-3.492H276.13v-3.1h-0.194V16.491h-0.195v-0.97h-0.194q-0.2-.97-0.389-1.94h-0.194q-0.195-.582-0.389-1.164H274.38V12.028h-0.194l-0.195-.776H273.8l-0.2-.582-0.389-.194V10.088L271.658,8.73l-0.778-.97h-0.389L269.324,6.4h-0.389l-0.389-.582h-0.388V5.626l-1.167-.388V5.044a7.694,7.694,0,0,0-3.5.194V5.432H263.1V5.626h-0.584V5.82h-0.389V6.014h-0.583V6.208l-0.778.194V6.6h-0.583V6.79l-0.778.194V7.178l-0.972.194V7.566l-1.167.388V8.148h-0.389V8.342H256.49V8.536H256.1V8.73h-0.389V8.924h-0.389V9.118h-0.389l-0.389.388h-0.388l-0.2.388-0.778.194v0.194l-0.583.194-0.195.388h-0.388v0.194l-0.584.194c-0.065.129-.13,0.259-0.194,0.388h-0.389l-0.389.582h-0.389l-0.389.582H249.3l-0.778.97h-0.389l-0.777.97h-0.389l-0.973,1.164H245.6l-1.555,1.746h-0.389l-0.195.388-0.972.776v0.388l-1.556,1.358v0.388l-0.583.388v0.388l-0.583.388V22.5l-0.389.194v0.388l-0.389.194q-0.195.582-.389,1.164l-0.389.194q-0.2.582-.389,1.164h-0.194v0.388h-0.195q-0.193.582-.389,1.164H236.85v0.582h-0.195v0.388h-0.194l-0.2.776h-0.194v0.582h-0.195v0.388h-0.194v0.582h-0.194v0.388h-0.195q-0.1.582-.194,1.164h-0.195v0.388h-0.194q-0.2.97-.389,1.94h-0.195v0.582h-0.194V35.7h-0.195v0.776h-0.194v0.776H233.35v0.776h-0.195V39h-0.194v0.97h-0.2v1.164h-0.194v1.358h-0.195v1.746h-0.194v4.074h-0.195v0.776h-0.194l-0.2.776h-0.194v0.388l-0.389.194V50.83l-1.167.97v0.194l-1.166.194v0.194h-1.362v0.194h-0.972c-1.319.409-1.782,0.73-3.111,0.194a1.613,1.613,0,0,1-.389-1.164,18.209,18.209,0,0,1,0-4.462c0.456-2.732.765-7.48,0-10.088V35.891q-0.778-2.716-1.556-5.432H221.1V30.071H220.9V29.489H220.71V29.1h-0.2V28.713h-0.194V28.325h-0.195V27.743h-0.194q-0.195-.582-0.389-1.164h-0.194V26.191h-0.195V25.8H218.96V25.415l-0.389-.388V24.639l-0.389-.194q-0.195-.582-0.389-1.164H217.6q-0.1-.291-0.194-0.582l-0.389-.194V22.117l-0.389-.194V21.535l-0.583-.388V20.759l-0.778-.582V19.789l-1.556-1.358-0.583-.776h-0.389l-0.389-.582h-0.389l-0.389-.582h-0.389c-0.064-.129-0.129-0.259-0.194-0.388l-0.778-.194c-0.065-.129-0.13-0.259-0.194-0.388h-0.389V15.327l-0.778-.194V14.939h-0.584V14.745h-0.388V14.551h-0.584c-1.824-.723-5.323-1.768-7.973-0.97h-0.972v0.194l-1.167.194v0.194h-0.389v0.194h-0.583c-0.065.129-.13,0.259-0.194,0.388l-0.778.194-0.195.388h-0.389l-1.361,1.552-0.778.582v0.388l-0.389.194v0.388l-0.388.194v0.388h-0.195q-0.195.582-.389,1.164h-0.194v0.582h-0.195v0.776h-0.194V22.7h-0.195a20.31,20.31,0,0,0,.195,5.238V29.1h0.194v0.97h0.195v0.776h0.194v0.776h0.2q0.194,0.873.389,1.746h0.194v0.388h0.194v0.582h0.195v0.388h0.194v0.582h0.195c0.065,0.259.129,0.517,0.194,0.776h0.2v0.388h0.194v0.388h0.195v0.388h0.194v0.388l0.389,0.388v0.388l0.389,0.194q0.195,0.582.389,1.164l0.389,0.194v0.388l0.389,0.194c0.065,0.259.129,0.517,0.194,0.776l0.389,0.194v0.388L196.6,42.1q0.1,0.291.194,0.582l0.584,0.388v0.388l0.389,0.194v0.194l0.389,0.194v0.388l0.972,0.776v0.388l1.167,0.97V46.95l1.166,0.97v0.388l0.778,0.582v0.388l0.778,0.582v0.388l0.778,0.582v0.388l0.389,0.194c0.065,0.194.129,0.388,0.194,0.582l0.778,0.582v0.388l0.584,0.388V53.74l0.777,0.582V54.71L206.9,54.9V55.1l0.389,0.194V55.68l0.972,0.776v0.388l2.528,2.328,2.334,2.522h0.389l1.555,1.746,0.584,0.194,1.556,1.746H217.6l1.556,1.746c2.829,2.041,5.142,4.554,7.973,6.6l1.167,1.358h0.389v0.194l0.583,0.388,0.389,0.582h0.389l1.167,1.358H231.6l0.973,1.164h0.389l0.972,1.164h0.389l0.972,1.164h0.389l0.778,0.97h0.389l0.583,0.776h0.389l0.583,0.776h0.389l0.389,0.582,0.584,0.194c0.064,0.129.129,0.259,0.194,0.388h0.195c0.064,0.129.129,0.259,0.194,0.388h0.389v0.194a1.685,1.685,0,0,0,.972.194V85.363ZM61.06,49.666a2.849,2.849,0,0,0-.583-1.358V47.726H60.282l-0.194-.776H59.893V46.368H59.7V45.98H59.5V45.4H59.31V44.816H59.115l-0.194-.776H58.726V43.651l-0.389-.194V43.069l-0.778-.582-1.167-1.358-0.778-.194-0.195-.388-0.972-.194V40.159H54.059V39.965H53.476V39.771H52.7V39.577H51.92V39.383H50.948V39.189H49.2V39a23.685,23.685,0,0,0-5.834.194H41.809v0.194H40.836v0.194l-2.334.388v0.194H37.919v0.194H37.336v0.194H36.753v0.194H36.169v0.194L35,41.323v0.194H34.614v0.194H34.225v0.194l-1.167.388-0.389.582H32.28l-0.389.582H31.5L30.141,45.01H29.752l-1.167,1.358L28,46.756v0.388l-1.361,1.164V48.7l-0.972.776V49.86l-0.583.388v0.388L24.7,50.83l-0.195.582H24.307V51.8l-0.389.194-0.194.582H23.529L23.141,53.74l-0.389.194-0.195.776H22.363l-0.389,1.164H21.779v0.582H21.585l-0.194.776H21.2v0.582H21V58.4H20.807v0.582H20.613V59.56c-1.3,3.317-1.967,9.564-.778,13.581V74.3l1.556,5.432h0.194v0.388h0.194v0.582h0.194l0.389,1.164h0.194v0.388h0.195v0.388h0.194v0.388h0.194v0.388l0.389,0.388V84.2l0.389,0.194,0.195,0.776h0.194L24.5,85.751l0.389,0.194v0.388l0.389,0.194v0.388l0.389,0.194,0.195,0.582,0.583,0.388v0.388l0.972,0.776v0.388l1.945,1.746,1.556,1.746h0.389l0.778,0.97h0.389l0.583,0.776h0.389l0.389,0.582h0.389l0.389,0.582H35L35.2,96.421h0.389L35.975,97h0.389l0.195,0.388h0.389l0.389,0.582h0.389l0.194,0.388L38.5,98.555v0.194h0.389l0.194,0.388,0.583,0.194v0.194l1.167,0.388,0.194,0.388H41.42V100.5l0.778,0.194v0.194h0.583v0.194H43.17v0.194h0.583v0.194h0.583v0.194h0.778v0.194h0.778v0.194l2.139,0.194v0.194l5.445,0.582v0.194h1.75v0.194h1.944V103.6h2.722a21.186,21.186,0,0,0,8.945-.388h0.778l4.084-1.746,0.194-.388h0.389l0.195-.388,0.583-.194,0.389-.582h0.389l0.195-.388,1.361-1.164V97.973l0.778-.582,0.195-.582,0.583-.388V96.033l0.389-.194a2.551,2.551,0,0,0,.389-1.746,2.439,2.439,0,0,1-1.167-3.1V89.825h0.194V88.467H78.95V87.109h0.195l0.194-2.328c0.51-1.711,1.2-5.477.194-6.984l-2.139-1.94L75.839,74.11H75.45l-0.389-.582H74.672l-0.389-.582H73.894L73.7,72.558l-0.778-.194-0.194-.388-0.778-.194V71.588l-0.778-.194V71.2L70.2,71.006V70.812l-1.167-.194V70.424l-1.75-.194V70.036H65.338c-2.059-.582-6.419-0.193-8.945-0.194l-8.556-.388-2.917-.97a0.34,0.34,0,0,1,.194-0.194,4.823,4.823,0,0,1,1.167-.776l0.389-.582h0.389l0.195-.388,0.583-.194V66.156h0.389V65.962l1.167-.388V65.38l1.167-.194V64.992h0.778V64.8l4.278-.194V64.41a19.315,19.315,0,0,1,5.056.194h1.945L66.31,64.8v0.194l7,0.582a14.657,14.657,0,0,0,4.667.194V65.574h1.945V65.38h1.945V65.186l2.334-.194,0.194-.388,0.778-.582V63.44h0.194V62.858h0.194V62.082h0.195V61.306H85.95V60.53h0.195V59.754h0.194V58.978h0.195V58.2h0.194l0.583-2.91h0.195l1.167-5.044h0.195l0.194-1.358h0.195l0.194-1.358h0.194l0.195-1.358h0.194l0.194-1.358h0.194V44.233h0.195V43.651h0.194V42.875h0.194L91.2,41.517c0.121-.336.426-0.977,0.583-1.358l0.583-.388V39.577h0.389V39.383l0.778-.194V39h0.972V38.8h1.556V39c1.588,0.436,3.457-.417,4.667.388l1.167,1.358v0.388h0.194v0.582h0.195v0.582h0.194v0.582h0.2v0.582h0.194v0.582h0.2v0.776h0.194V45.4h0.195q0.1,0.679.194,1.358h0.195q0.1,0.776.194,1.552h0.194l0.2,1.552h0.194q0.2,1.358.389,2.716H105.2v0.97c0.28,0.909.5,2.22,0.778,3.1q0.1,1.067.194,2.134c0.334,1.1.576,2.64,0.972,3.686v0.582h0.195v0.582l0.389,0.194c0.356,0.51-.209.351,0.583,0.582V64.6H108.7V64.8h2.333V64.6h1.751V64.41h1.555V64.216l2.139-.194,2.917-.194V63.634h1.945V63.44h1.944V63.246h2.139V63.052l7.779-.194h6.222v0.194h0.584l0.389,0.582h0.389c0.064,0.129.129,0.259,0.194,0.388a9.882,9.882,0,0,1,.972.776H141.76c-1.242,2.011-3.639,2.1-6.028,2.91h-0.778V67.9h-0.972c-4.756,1.539-10.433,2.153-14.779,4.074h-0.584V72.17l-0.777.194v0.194c-1.252.668-3.314,1.044-3.695,2.522h-0.2a2.752,2.752,0,0,0,0,1.746h0.2v0.388l0.389,0.194,0.778,0.97H115.7l0.2,0.388h0.389l0.194,0.388,1.167,0.388v0.194l0.778,0.194c0.065,0.129.13,0.259,0.194,0.388l0.778,0.194v2.328c-1.059.252-1.638,1.1-2.722,1.358a3.292,3.292,0,0,0,.778,1.552v0.388h0.194v0.388l0.389,0.194v0.388h0.194V87.5h0.195v0.388l0.389,0.388v0.388l0.389,0.194v0.388a5.331,5.331,0,0,1,.778,1.552,5.178,5.178,0,0,0,1.75-.582l1.75-.388V89.631h0.389V89.437l1.166-.194V89.049h0.389V88.855h0.584V88.661l0.778-.194V88.273h0.583V88.079h0.389V87.885l1.167-.194V87.5h0.583V87.3h0.583V87.109h0.584V86.915l1.555-.194V86.527l1.945-.194V86.139l5.639-.194h10.112V85.751h1.167V85.557l0.778-.194a3.713,3.713,0,0,0-.2-1.746l-0.389-.194c-0.065-.259-0.129-0.517-0.194-0.776l-0.389-.194V82.065l-0.389-.194V81.483l-0.389-.194V80.9l-0.389-.194V80.319l-0.389-.194V79.737h-0.194V79.349h-0.2V78.767h-0.194V77.8h-0.195V77.6h0.195c0.107-.551.118-0.919,0.194-1.358l1.167-.97,1.945-.388a20.009,20.009,0,0,1,6.222-1.358c0.5,0.842,1.281,1.011,1.362,2.328-1.492,1.284.095,3.709,0.777,4.656l1.945,1.746,3.889,4.074c1.1,1.1,2.278,1.7,2.334,3.88l-0.973.776v0.194l-0.778.194v0.194h-2.916V91.377H161.6V91.183H159.65V90.989h-1.361V90.8h-1.556V90.6l-4.861-.388V90.019l-2.723-.194H147.01a20.366,20.366,0,0,0-5.25-.194v0.194h-2.528v0.194h-1.556v0.194h-1.361v0.194h-0.972V90.6h-0.778V90.8h-0.972v0.194l-0.973.194c-0.064.129-.129,0.259-0.194,0.388h-0.389l-0.195.388h-0.388l-0.778.97h-0.389l-0.778.97h-0.194l-0.195.388h-0.389l-1.361,1.94c-0.834,1.857-.937,5.865-2.917,6.4-0.626.525-2.625-.385-3.306-0.582l-3.889.194v-0.194h-0.583l-1.75-1.552v-0.388l-0.389-.194V99.525l-0.389-.194V98.943l-0.389-.194-0.195-.776h-0.194q-0.1-.291-0.194-0.582l-0.389-.194V96.809h-0.2V96.421l-0.389-.194q-0.194-.582-0.389-1.164l-0.389-.194V94.481l-0.389-.388V93.705h-0.194V93.317h-0.194V92.929h-0.2V92.541h-0.194q-0.195-.582-0.389-1.164h-0.195V90.8H109.48V90.407h-0.2q-0.1-.485-0.194-0.97H108.9V88.855H108.7V88.273h-0.194V87.885h-0.195V87.3h-0.194V86.915h-0.195V86.527H107.73V86.139h-0.2V85.751l-0.389-.388V84.975l-0.389-.194q-0.194-.582-0.389-1.164l-0.388-.194q-0.2-.582-0.389-1.164l-0.389-.194q-0.195-.582-0.389-1.164l-0.389-.194V80.319l-0.389-.388V79.543h-0.194V79.155h-0.195V78.767h-0.194l-0.195-.776h-0.194V77.409h-0.2c-0.065-.259-0.129-0.517-0.194-0.776h-0.2V76.051h-0.194V75.663H102.09V75.08H101.9V74.692H101.7l-0.195-1.164h-0.194V73.14h-0.2V72.558h-0.194V71.976h-0.2V71.394h-0.194c-0.447-1.121-.326-2.2-1.556-2.522a3.726,3.726,0,0,0-1.945-.194l-3.111.194a12.78,12.78,0,0,1-1.556.582c-0.41.715-1.208,1.151-1.556,1.94v0.582H90.617v0.776H90.423v1.164H90.229v2.134a2.641,2.641,0,0,0-.194,1.358c0.658,2.371,1.361,4,1.361,7.178v2.522H91.2v1.164H91.006v0.776H90.812v0.776H90.617v0.582H90.423v0.582H90.229v0.582H90.034v0.388H89.84v0.582H89.645l-0.389,1.164H89.062l-0.389,1.164-0.389.194v0.388l-0.583.388v0.388l-0.389.194a3.947,3.947,0,0,0-1.167,1.552H85.756a7.953,7.953,0,0,1-2.528,2.134l-0.389.582-0.583.194-0.194.388H81.672l-0.194.388H81.089l-0.195.388H80.506l-0.195.388-1.167.388v0.194H78.756v0.194l-1.167.388v0.194H77.005v0.194H76.422v0.194H75.839v0.194H75.255v0.194H74.672v0.194l-1.167.388v0.194H73.116l-0.195.388H72.533l-0.194.388H71.949l-0.194.388-0.778.194-0.194.388L70,107.285v0.194H69.616v0.2l-1.167.388v0.194H67.866v0.194l-0.778.194v0.194H66.5v0.194l-0.778.194v0.194H65.143v0.194H64.754v0.194l-6.806,2.134-7,1.164H49V113.3H45.7a20.535,20.535,0,0,1-4.473.194,30.835,30.835,0,0,1-9.917-1.358l-1.556-.194v-0.194H29.169v-0.194H28.585V111.36H28v-0.194H27.613v-0.194H27.03v-0.194H26.641v-0.194H26.057V110.39H25.668V110.2H25.085V110l-1.167-.388V109.42H23.529v-0.194H23.141v-0.194H22.752v-0.194H22.363l-0.389-.388H21.585l-0.194-.388-1.167-.388-0.194-.389H19.64v-0.194H19.251l-0.194-.388H18.668l-0.194-.388H18.085l-0.194-.388-0.778-.194-0.195-.388H16.529l-0.194-.388H15.946l-0.195-.388H15.362v-0.194l-0.583-.194-0.194-.388H14.2l-0.389-.582H13.418l-0.194-.388H12.834l-0.194-.388H12.445l-0.194-.388H11.862l-0.583-.776H10.89L9.334,99.525l-0.972-.776V98.361l-0.778-.582V97.391L7,97V96.615l-0.583-.388V95.839l-0.389-.194-0.194-.582H5.639l-0.194-.776-0.389-.194-0.194-.776-0.389-.194V92.735l-0.389-.388V91.959H3.889V91.571L3.5,91.377V90.989H3.306V90.6H3.111V90.019H2.917V89.631H2.722l-0.194-.776H2.334l-0.194-.97H1.945L1.75,86.721A24.523,24.523,0,0,1,0,77.409v-3.3H0.194V71.588H0.389v-1.94H0.583V68.29H0.778V67.126H0.972v-0.97H1.167V65.574H1.361V64.8H1.556l0.194-.97H1.945V63.44H2.139l0.583-1.746L3.111,61.5,3.5,60.336H3.695l0.194-.582,0.389-.194V59.172l0.389-.194V58.59H4.861l0.194-.582,0.389-.194V57.426l0.583-.388V56.65l0.583-.388V55.874l0.778-.582V54.9l0.972-.776V53.74l0.972-.776V52.576l1.945-1.746,1.75-1.94h0.389l0.778-.97h0.389l0.389-.582h0.389l0.389-.582H16.14l0.194-.388h0.389l0.389-.582H17.5L17.7,45.4l1.167-.388V44.816l1.167-.388V44.233h0.583V44.039H21V43.845h0.583V43.651l0.778-.194V43.263h0.583V43.069l0.778-.194V42.681h0.583V42.487H24.7V42.293h0.389V42.1l0.778-.194V41.711h0.389V41.517h0.389V41.323H27.03V41.129h0.389V40.935l1.167-.388,0.195-.388,0.778-.194V39.771h0.389V39.577h0.389V39.383h0.389V39.189h0.389V39H31.5V38.8l0.778-.194V38.413l1.167-.388V37.831H34.03V37.637h0.389V37.443l0.778-.194V37.055l5.639-1.746,2.139-.194c2.972-.875,7.334-0.546,11.084-0.582a4.7,4.7,0,0,0-.972-2.134V32.011L52.7,31.817l-0.389-1.164-0.389-.194V30.071H51.726V29.683H51.531V29.3l-0.389-.388V28.519l-0.389-.194V27.937l-0.389-.388V27.161H50.17V26.773H49.976V26.385H49.781V26H49.587L49.2,24.833H49l-0.194-.97H48.615l-0.194-.776H48.226V22.5H48.031V22.117H47.837l-0.194-1.164H47.448V20.371H47.253V19.789H47.059V19.207H46.864V18.625H46.67V17.849c-0.215-.632-1-3.14-0.583-4.268a8.708,8.708,0,0,0,.778-1.358,5.279,5.279,0,0,0,1.361-.776h0.389V11.252l1.167-.194,0.195-.388a6.092,6.092,0,0,1,3.111-.388v0.194h0.389V10.67h0.389l0.583,0.776h0.194v0.388l0.389,0.194v0.388h0.195V13h0.194v0.388h0.195v0.582h0.194v0.388H56L56.2,15.521h0.194v0.388h0.194l0.194,1.164h0.194v0.388h0.194v0.582h0.194v0.388H57.56v0.582h0.194V19.4h0.195l0.194,1.164h0.195v0.388h0.194v0.582h0.195v0.388h0.194l0.194,0.97H59.31v0.582H59.5v0.388H59.7v0.582h0.194v0.388h0.194v0.582h0.194V25.8h0.194v0.582h0.195v0.388h0.194v0.582H61.06l0.194,0.776h0.194v0.582h0.194l0.194,0.776h0.194v0.582h0.194l0.194,0.776h0.194v0.582H62.81v0.388H63L63.2,32.593h0.195v0.582h0.194l0.389,1.164h0.194v0.388h0.195v0.388H64.56V35.5h0.194v0.388h0.195v0.388h0.194v0.388h0.195l0.194,0.776h0.194v0.388h0.194v0.388h0.195v0.388H66.31V39H66.5l0.389,1.164a26.116,26.116,0,0,1,3.889,8.924c-0.372.2-.795,0.613-1.167,0.776l-1.167.194v0.194H65.532V50.054H64.366V49.86ZM383.082,73.14a2.847,2.847,0,0,1,1.75.776h0.195q0.1,0.679.194,1.358c0.328,0.875,1.195,3.234.778,4.656a3.047,3.047,0,0,0-.389,1.94l0.778,1.358c0.391-.111.168,0.023,0.389-0.194a6.853,6.853,0,0,0,1.75-1.164v1.552c0.38,0.435.176,1.758,0.194,2.522q0.195,2.328.389,4.656c-0.874-.256-0.722-0.552-1.166-1.164l-0.778-.582c-0.186-.177-0.291-0.734-0.778-0.582v0.194l-0.583.194c0.328,0.885.518,2.221,0.777,3.1v1.358h0.195v3.1h-0.195v1.552h-0.194q0.1,2.037.194,4.074h0.389l2.334-2.134V99.331l0.389-.194c0.065-.194.129-0.388,0.194-0.582h0.2V98.167l0.389-.194,0.388-1.164h0.195V96.421h0.194V96.033h0.195q0.193-.582.389-1.164h0.194l0.195-1.164h0.194V93.317h0.195q0.1-.679.194-1.358H393V91.377h0.194V90.6h0.194v-0.97h0.2V88.467h0.194V87.109h0.195v-1.94c0.366-1.309-.168-3.389.194-4.85h0.195a0.511,0.511,0,0,0-.195-0.582c-0.315-1.265.1-3.04-.194-4.074l-0.195-3.3h-0.194V71.2h-0.2V70.23h-0.194V69.26H393V68.484h-0.195V67.708h-0.194V67.126h-0.195V66.35h-0.194V65.768h-0.195V65.186h-0.194V64.6h-0.2V64.022h-0.194V63.634h-0.195V63.052h-0.194V62.664H390.86V62.082h-0.194V61.694h-0.194l-0.195-1.164h-0.194l-0.2-1.358h-0.194V58.59H389.5q-0.194-.582-0.389-1.164h-0.194V57.038l-0.389-.194q-0.1-.388-0.194-0.776l-0.584-.388V55.292l-0.583-.388V54.516l-1.361-1.164V52.964l-0.389-.194-0.584-.776L382.5,49.86V49.472l-0.973-.776-1.555-1.746h-0.389L378.221,45.4h-0.389l-0.972-1.164h-0.389l-0.584-.776H375.5l-0.583-.776h-0.389l-0.389-.582h-0.389l-0.389-.582H372.97l-0.389-.582h-0.388l-0.389-.582h-0.389l-0.389-.582-0.584-.194c-0.064-.129-0.129-0.259-0.194-0.388h-0.389c-0.065-.129-0.13-0.259-0.194-0.388h-0.389l-0.389-.582-0.778-.194-0.195-.388-0.583-.194V37.249l-0.778-.194-0.194-.388H365.97l-0.389-.388h-0.389V36.085H364.8V35.891h-0.389L364.22,35.5h-0.389V35.309h-0.584V35.115h-0.388V34.921l-1.167-.388V34.339h-0.584V34.145h-0.389V33.951l-0.972-.194V33.563h-0.583V33.369H358.58V33.175H358V32.981h-0.583V32.787H356.83V32.593h-0.583V32.4l-1.361-.194V32.011h-0.778V31.817H353.33V31.623h-0.972V31.429H351.58V31.235h-0.972V31.041h-1.167V30.847h-1.167V30.653h-1.361V30.459h-1.75V30.265h-3.306c-2.364-.66-5.8,0-8.362,0-2.874,0-5.946-.089-8.167.582l-2.917.388v0.194l6.806,0.388c2.081,0.013,4.876-.3,6.612.194h3.306a22.157,22.157,0,0,1,5.639.582h1.167v0.194h0.972v0.194l1.75,0.194v0.194h0.778v0.194h0.778v0.194H351v0.194h0.583v0.194h0.778v0.194h0.583v0.194h0.584v0.194h0.583v0.194H354.5v0.194h0.583v0.194h0.389V35.5h0.584V35.7l1.166,0.388v0.194h0.389v0.194l0.778,0.194c0.065,0.129.13,0.259,0.194,0.388l1.167,0.388,0.195,0.388h0.389v0.194h0.388l0.195,0.388,1.167,0.388,0.194,0.388,0.778,0.194c0.065,0.129.13,0.259,0.194,0.388l0.778,0.194,0.2,0.388L365,40.547c0.064,0.129.129,0.259,0.194,0.388l0.778,0.194v0.194l0.583,0.194,0.195,0.388h0.389l0.389,0.582h0.388l0.195,0.388H368.5l0.389,0.582h0.389l0.777,0.97h0.389l1.751,1.94,0.972,0.776v0.388l1.167,0.97,0.972,1.164,0.583,0.388v0.388l1.361,1.164v0.388l0.778,0.582v0.388l0.389,0.194,0.195,0.582H378.8q0.2,0.582.389,1.164l0.389,0.194v0.388l0.389,0.388v0.388h0.194V56.65h0.195v0.388h0.194v0.388h0.2v0.388h0.194V58.2h0.195l0.388,1.164h0.195v0.582h0.194l0.195,0.776H382.3v0.388h0.2V61.5h0.194q0.195,0.582.389,1.164h0.195v0.582h0.194v0.388h0.195v0.582h0.194Q383.472,68.678,383.082,73.14ZM150.316,32.205h0.778a3.352,3.352,0,0,0,1.167.776l0.972,1.358c0.622,1.384.2,2.825,0.194,4.462-0.006,2.145.36,4.24,0,6.208a2.269,2.269,0,0,1-.778.388c-0.533.485-3.353-.149-3.889-0.388V44.816h-0.389V44.622h-0.389c-0.064-.129-0.129-0.259-0.194-0.388H147.4c-0.065-.129-0.13-0.259-0.194-0.388h-0.389V43.651l-0.778-.582V42.681l-0.583-.388V41.905l-0.389-.194V41.323h-0.195q-0.194-.97-0.389-1.94a5.631,5.631,0,0,1-.194-2.522q0.388-1.164.778-2.328l3.5-1.746h0.583V32.593l1.167-.194V32.205ZM317.355,89.049v0.388c0.092,0.2.57,0.1,0.389,0.776H317.55V90.6h-0.195q-0.1,1.067-.194,2.134h0.194l0.195,0.776,0.583,0.388v0.388l1.167,0.97a34.811,34.811,0,0,0,3.889,3.88h0.389l0.583,0.776h0.389q0.195,0.291.389,0.582h0.389l0.2,0.388h0.389c0.064,0.13.129,0.259,0.194,0.388H326.5l0.194,0.388h0.389l0.2,0.388h0.389c0.064,0.13.129,0.259,0.194,0.388h0.389l0.194,0.388,0.778,0.194,0.195,0.388H329.8c0.064,0.13.129,0.259,0.194,0.388l0.778,0.194c0.065,0.13.13,0.259,0.194,0.388l1.167,0.388,0.195,0.388,0.777,0.194,0.195,0.388,0.778,0.194v0.194l1.167,0.388V106.7h0.583V106.9h0.389v0.194H336.8v0.194h0.389v0.194h0.583v0.2h0.389v0.194h0.584v0.194l0.778,0.194v0.194l0.777,0.194,0.195,0.388h0.389l0.389,0.388h0.389v0.194h0.389v0.194h0.388V110h0.389V110.2h0.389v0.194h0.389v0.194l1.167,0.194v0.194h0.583v0.194h0.584v0.194h0.583v0.194h0.583v0.194h0.778v0.194h0.778v0.194h0.778v0.194l1.75,0.194v0.194h0.972v0.194l3.89,0.388H358v0.194h1.167V113.3h3.5v-0.194h1.75c1.47-.415,3.454-0.54,4.862-0.97h0.972v-0.194h0.972l2.334-.776,0.389-.582h0.389L374.72,110l1.556-1.358v-0.388l0.972-.777v-0.388l0.389-.194v-0.388l0.584-.388c0.065-.258.129-0.517,0.194-0.776l0.389-.194,0.2-.776,0.388-.194,0.195-.776h0.194l0.195-.776h0.194v-0.582h0.195c0.065-.258.129-0.517,0.194-0.776h0.2q0.1-.582.194-1.164h0.195V99.719h0.194q0.1-.679.194-1.358h0.195V97.779h0.194l0.195-1.358H382.3V95.645h0.2v-0.97h0.194v-0.97h0.195V92.347h0.194V90.213h0.195q0.1-5.238.194-10.476h0.195a3.466,3.466,0,0,0-.195-1.552,14.893,14.893,0,0,0-.389-3.686h-0.194l-0.195-1.164H382.5V72.946h-0.2q-0.1-.388-0.194-0.776h-0.195q-0.1-.679-0.194-1.358h-0.195V69.648h-0.194V68.484h-0.194v-0.97h-0.195v-0.97h-0.194V65.186h-0.2v-0.97H380.36V63.634h-0.195V63.052l-0.389-.194V62.47h-0.194l-0.389-.582H378.8a11.529,11.529,0,0,1-1.167-.776q-0.194-.582-0.389-1.164h-0.194V59.56H376.86q-0.195-.582-0.389-1.164h-0.195V57.814h-0.194V57.426h-0.195V57.038l-0.389-.194c-0.065-.259-0.129-0.517-0.194-0.776l-0.389-.194V55.486l-0.778-.582V54.516l-0.972-.776V53.352l-0.972-.776V52.188l-1.167-.97V50.83l-1.167-.97q-0.1-.291-0.194-0.582l-2.139-1.94-1.556-1.746h-0.389l-0.972-1.164H364.22l-0.389-.582h-0.389l-0.195-.388-0.583-.194V43.069l-0.778-.194-0.194-.388-0.778-.194-0.195-.388h-0.388l-0.389-.388h-0.389V41.323h-0.389V41.129l-0.778-.194c-0.065-.129-0.13-0.259-0.194-0.388H357.8l-0.389-.388h-0.389V39.965h-0.389V39.771h-0.389V39.577h-0.389V39.383h-0.389V39.189H355.08V39h-0.389V38.8H354.3V38.607l-0.777-.194V38.219h-0.389V38.025h-0.584V37.831l-0.778-.194V37.443l-1.75-.388V36.861h-0.389V36.667h-0.777V36.473h-0.584V36.279l-1.361-.194V35.891l-1.75-.194V35.5l-1.945-.194V35.115l-2.528-.194V34.727h-1.361V34.533h-1.75a18.393,18.393,0,0,0-9.14.194h-1.555l-8.362,1.552-4.861,2.134-0.195.388h-0.389l-0.194.388h-0.389v0.194l-0.583.194-0.195.388h-0.389l-0.389.582-0.583.194L309.188,42.1H308.8l-1.167,1.358-0.583.388v0.388L305.688,45.4v0.388l-0.583.388-0.195.582-0.389.194-1.944,3.88v0.776h-0.195v0.776h-0.194v1.164h-0.195v2.716H301.8v0.97H301.6v0.776H301.41v1.164h-0.2V61.5a17.548,17.548,0,0,0,.973,6.208v0.776h0.194v0.582h0.195v0.582h0.194V70.23h0.194v0.582h0.2v0.582h0.194v0.582h0.195q0.1,0.582.194,1.164h0.195v0.388h0.194V74.11h0.195q0.194,0.582.389,1.164h0.194v0.388h0.195l0.388,1.164,0.389,0.194,0.195,0.776,0.389,0.194v0.388h0.194l0.195,0.582,0.389,0.194v0.388l0.583,0.388v0.388l0.778,0.582v0.388l0.972,0.776v0.388l0.389,0.194v0.194l0.389,0.194v0.388l0.972,0.776v0.388l1.167,0.97q0.1,0.291.194,0.582l0.389,0.388h0.389l0.778,0.97h0.389l0.389,0.582h0.389A6.442,6.442,0,0,0,317.355,89.049Zm43.364,0.97c-1.637.029-6.613,0.323-7.389-.388h-0.389V89.437l-1.167-.97V88.079l-0.388-.194-0.2-.776H351c-1.107-2.49-.493-5.951-4.084-6.014a15.115,15.115,0,0,0-1.167,1.552v0.776h-0.194v0.97h-0.195v1.358h-0.194V87.3h-0.195v1.164q-0.291.97-.583,1.94l-1.167.97a11.225,11.225,0,0,1-3.694-.582h-1.167V90.6h-0.972V90.407h-0.973V90.213h-0.778V90.019l-0.777-.194V89.631h-0.389l-0.195-.388h-0.389l-0.389-.582H333.3V88.273l-0.583-.388-0.195-.776h-0.194V86.721h-0.195c-0.065-.323-0.129-0.647-0.194-0.97h-0.195q-0.1-.582-0.194-1.164h-0.195V84h-0.194l-0.195-1.164h-0.194V82.259h-0.194V81.677h-0.195V81.095H330.19L330,79.737H329.8l-0.195-1.552h-0.194l-0.195-1.746h-0.194V75.274h-0.2V74.11h-0.194V72.946h-0.195V71.2a16.34,16.34,0,0,1-.388-4.074V64.992h-0.195l0.195-6.984h7.195V58.2l0.777,0.194,0.195,0.776h0.194V64.41c0.642,3.826-.262,9.068.778,12.416V77.8h0.195v1.164h0.194v0.97h0.194c0.309,0.656-.02.735,0.778,0.97,0.455,0.422,1.275.055,1.945,0a0.339,0.339,0,0,1,.194-0.194,5.35,5.35,0,0,1,.584-1.746V78.379h0.194V77.8h0.195V77.215h0.194V76.633h0.195V76.051h0.194V75.469h0.194l1.362-5.626v-6.79H344v-3.3h0.195V57.426h0.194v-1.94h0.194V53.74h0.195V52.188h0.194l0.195-1.164a2.511,2.511,0,0,1,1.556-.388c0.929,1.108,2.275.329,3.305,0h1.75l0.389,0.582h0.195v0.388h0.194v0.582h0.195q0.1,3.395.194,6.79h0.2v2.134c0.6,2.092.373,4.921,0.972,6.984v1.358c0.271,0.913.5,2.22,0.778,3.1v0.97h0.194l0.195,1.552h0.194q0.292,1.358.584,2.716h0.194v0.582h0.194v0.582h0.2q0.291,1.261.583,2.522h0.195q0.194,0.97.389,1.94H358l0.195,0.776h0.194v0.388l0.389,0.194q0.1,0.388.194,0.776A17.261,17.261,0,0,1,360.719,90.019ZM95.868,59.754l-0.195.582H95.479v0.388H95.284L94.9,61.888l-0.389.194L93.729,64.41c0.806,0.476.935,1.226,2.139,1.358a5.951,5.951,0,0,1,1.944-.582A2.078,2.078,0,0,1,98.2,64.8l0.389-1.746a5.133,5.133,0,0,1-.778-1.164l-0.778-.582V60.918l-0.583-.388V60.142ZM11.084,61.888l-0.778,2.134H10.112L9.917,65.186H9.723v0.776H9.528v0.776H9.334v0.97H9.14v1.358H8.945V71.2H8.751a19.167,19.167,0,0,0,.194,5.044l0.194,2.91L10.5,84.2H10.7v0.388H10.89v0.582h0.194l0.195,0.776h0.194v0.582h0.194L11.862,87.3h0.194l0.194,0.776,0.389,0.194,0.389,1.164,0.389,0.194,0.194,0.776h0.194L14,90.989l0.389,0.194v0.388l0.389,0.194,0.194,0.582,0.583,0.388v0.388l0.389,0.194L16.14,93.9l0.972,0.776v0.388l1.945,1.746V97.2l0.972,0.776,0.194,0.388,0.583,0.194,1.361,1.552h0.389l0.778,0.97h0.389l0.389,0.582,0.583,0.194,0.194,0.388H25.28l0.195,0.388,0.583,0.194v0.194h0.389l0.194,0.388,0.778,0.194,0.194,0.388,0.778,0.194,0.194,0.388,0.778,0.194v0.194h0.389v0.194h0.389v0.194l1.167,0.388v0.194l0.972,0.194v0.194h0.389v0.194h0.583V106.7h0.389V106.9h0.583v0.194h0.583v0.194h0.778v0.194h0.778v0.2h0.778v0.194l2.334,0.194v0.194l3.111,0.194v0.194h1.361v0.194h1.167v0.194h1.361v0.194h2.139v0.194h2.917v-0.194H53.67v-0.194h1.556v-0.194H56.2v-0.194h0.972V108.45c0.626-.2,1.128,0,1.556-0.388-2.223.041-5.327,0.336-7.195-.194-1.176-.334-3.025.107-4.084-0.194l-3.111-.2-6.417-2.134v-0.194H37.53v-0.194H36.947v-0.194H36.558v-0.194H35.975v-0.194l-0.778-.194v-0.194H34.614v-0.194l-1.167-.388v-0.194H33.058v-0.194H32.669v-0.194H32.086v-0.194l-1.167-.388v-0.194H30.53v-0.194H30.141v-0.194H29.752v-0.194l-3.111-1.358-0.194-.388-0.778-.194-0.194-.388H25.085V98.943L24.5,98.749l-0.194-.388H23.918l-0.583-.776H22.946l-0.778-.97-1.945-1.746V94.481l-0.583-.388-0.195-.582-0.389-.194V92.929l-0.389-.194-0.194-.582H18.279V91.765l-0.389-.194V91.183L17.5,90.989V90.6l-0.389-.194-0.195-.776-0.389-.194V89.049l-0.389-.194-0.194-.776H15.751V87.691L15.362,87.5l-0.194-.776-0.389-.194L14.39,85.363,14,85.169l-0.194-.776L13.418,84.2l-0.194-.776H13.029V83.035H12.834l-0.389-1.164H12.251l-0.389-1.746a24.453,24.453,0,0,1-1.167-8.73V67.9H10.89V65.574h0.194V63.44h0.195V61.888H11.084Zm107.341,4.656c-0.625.516-2.178,0.117-3.111,0.388l-6.029.97-0.777.97h-0.195v0.582h0.195V70.23H108.7v0.388H108.9l0.195,0.582c2.046,0.232,4.577.345,6.223-.388V70.618H115.7V70.424h0.389l0.2-.388,0.778-.194c0.064-.129.129-0.259,0.194-0.388h0.389l0.195-.388h0.388l0.584-.776c0.573-.414.96-0.363,1.167-1.164h-0.195q-0.1-.291-0.194-0.582h-1.167Zm-37.919,4.85c0.667,0.169.5,0.4,1.167,0.582V71.782l1.945-2.134c-0.459-.219-1.487-1.068-1.75-0.776A4.577,4.577,0,0,0,80.506,71.394Zm181.04,6.6c2.2,0.384,3.018-.189,4.667-0.776h0.778V77.021h0.583V76.827h0.584V76.633h1.166V76.439l5.251,0.388v0.194l2.528,0.194c2.213,0.666,5,.871,7.195,1.552l2.139,0.194v0.194h0.972v0.194h0.778v0.194h0.778v0.194h0.777v0.194h0.973v0.194c0.426,0.128.65,0.067,0.972,0.194V80.125a1.264,1.264,0,0,0,.389-1.164,13.212,13.212,0,0,1-3.111-1.552l-1.362-.388V76.827h-0.389V76.633h-0.583V76.439h-0.389V76.245l-6.417-1.552L276.13,74.5a21.965,21.965,0,0,0-7.389,0h-2.334v0.194H265.63v0.194h-0.584V75.08h-0.389v0.194h-0.583v0.194l-1.167.388v0.194h-0.389v0.194h-0.389v0.194a0.506,0.506,0,0,0-.194.194H261.74v0.776h-0.194v0.582Zm105.4,40.354c0.2-.786.763-1.02,0.972-1.94l-1.555-.776h-8.751v-0.194h-1.555V115.24h-1.362c-1.594-.468-3.641-0.7-5.25-1.164l-2.722-.194v-0.194h-0.584v-0.194h-0.583V113.3h-0.584v-0.194c-1.341-.444-3.187.238-3.5,1.358l1.167,0.97v0.388l0.778,0.582,0.194,0.388H344l0.389,0.582h0.389v0.194l0.778,0.194v0.194l1.167,0.194v0.194h0.388v0.194h0.584v0.194h0.583v0.194h0.584v0.194h0.777v0.194h0.778v0.194h0.778V119.7h0.778V119.9l2.139,0.194v0.194l3.306,0.194v0.194h2.917v-0.194h1.555v-0.194h0.778V120.09l1.361-.194V119.7h0.389v-0.194H365v-0.194h0.388l0.195-.388h0.389v-0.194h0.389v-0.194Z"/>
</svg>
